<?xml version="1.0" encoding="UTF-8" standalone="no"?>
<!-- Created with Inkscape (http://www.inkscape.org/) -->

<svg
   width="400"
   height="82"
   viewBox="0 0 2158.7961 445"
   version="1.1"
   id="svg1"
   xml:space="preserve"
   inkscape:version="1.4.3 (0d15f75042, 2025-12-25)"
   sodipodi:docname="ubuntu-logo-text-dark.svg"
   inkscape:export-batch-name="anduinos"
   inkscape:export-batch-path="..\anduinos-logo设计\banner-logo"
   xmlns:inkscape="http://www.inkscape.org/namespaces/inkscape"
   xmlns:sodipodi="http://sodipodi.sourceforge.net/DTD/sodipodi-0.dtd"
   xmlns="http://www.w3.org/2000/svg"
   xmlns:svg="http://www.w3.org/2000/svg"><sodipodi:namedview
     id="namedview1"
     pagecolor="#ffffff"
     bordercolor="#000000"
     borderopacity="0.25"
     inkscape:showpageshadow="2"
     inkscape:pageopacity="0.0"
     inkscape:pagecheckerboard="0"
     inkscape:deskcolor="#d1d1d1"
     inkscape:document-units="px"
     inkscape:zoom="0.32"
     inkscape:cx="1848.4375"
     inkscape:cy="-239.0625"
     inkscape:window-width="2560"
     inkscape:window-height="1355"
     inkscape:window-x="0"
     inkscape:window-y="0"
     inkscape:window-maximized="1"
     inkscape:current-layer="毛玻璃立体logo-横版白字"
     showgrid="false"><inkscape:grid
       id="grid18"
       units="px"
       originx="-3642.6888"
       originy="6999.6748"
       spacingx="1"
       spacingy="1"
       empcolor="#0099e5"
       empopacity="0.30196078"
       color="#0099e5"
       opacity="0.14901961"
       empspacing="5"
       enabled="true"
       visible="false" /></sodipodi:namedview><defs
     id="defs1"><filter
       inkscape:collect="always"
       style="color-interpolation-filters:sRGB"
       id="filter10"
       x="-0.20381072"
       y="-0.20381072"
       width="1.4076214"
       height="1.4076214"><feGaussianBlur
         inkscape:collect="always"
         stdDeviation="20.768054"
         id="feGaussianBlur10" /></filter><clipPath
       clipPathUnits="userSpaceOnUse"
       id="clipPath11"><path
         id="path12"
         style="opacity:1;fill:#a1c8f6;fill-opacity:1;stroke-width:0.318382"
         d="m -1950.9658,-2040.8375 c -6.2216,6.2217 -10.0594,14.8273 -10.0594,24.362 l -4e-4,175.714 c 0,9.5347 3.8379,18.14 10.0595,24.3617 l 45.4598,45.4598 c 6.2217,6.2216 14.8276,10.0601 24.3623,10.0601 l 175.7139,-4e-4 c 19.0694,0 34.4212,-15.3518 34.4212,-34.4212 l 7e-4,-175.7142 c 0,-9.5347 -3.8385,-18.1406 -10.0601,-24.3623 l -45.4598,-45.4598 v 0 c -6.2217,-6.2216 -14.8268,-10.0598 -24.3614,-10.0598 l -175.7143,7e-4 c -9.5347,0 -18.1401,3.8375 -24.3617,10.0591 z" /></clipPath><filter
       inkscape:collect="always"
       style="color-interpolation-filters:sRGB"
       id="filter12"
       x="-0.20381072"
       y="-0.20381072"
       width="1.4076214"
       height="1.4076214"><feGaussianBlur
         inkscape:collect="always"
         stdDeviation="20.768054"
         id="feGaussianBlur12" /></filter><clipPath
       clipPathUnits="userSpaceOnUse"
       id="clipPath13"><path
         id="path14"
         style="opacity:1;fill:#5baefd;fill-opacity:1;stroke-width:0.318382"
         d="m -1828.6872,-1918.5589 c -6.2216,6.2216 -10.0595,14.8273 -10.0596,24.3619 l -3e-4,175.714 c -10e-5,9.5346 3.8378,18.14 10.0594,24.3616 l 45.46,45.46 c 6.2217,6.2217 14.8274,10.0599 24.3621,10.06 l 175.7141,-4e-4 c 19.0694,10e-5 34.4212,-15.3517 34.4211,-34.4211 l 6e-4,-175.7143 c 0,-9.5348 -3.8382,-18.1405 -10.0599,-24.3622 l -45.46,-45.46 v 0 c -6.2216,-6.2216 -14.8267,-10.0598 -24.3613,-10.0597 l -175.7143,7e-4 c -9.5346,0 -18.14,3.8376 -24.3616,10.0592 z" /></clipPath><filter
       inkscape:collect="always"
       style="color-interpolation-filters:sRGB"
       id="filter15"
       x="-0.11588829"
       y="-0.20094674"
       width="1.2317766"
       height="1.4018935"><feGaussianBlur
         inkscape:collect="always"
         stdDeviation="19.543553"
         id="feGaussianBlur15" /></filter><clipPath
       clipPathUnits="userSpaceOnUse"
       id="clipPath15"><rect
         style="opacity:1;mix-blend-mode:normal;fill:#357cf4;fill-opacity:1;stroke-width:0.318384"
         id="rect16"
         width="244.55695"
         height="244.55695"
         x="-1716.4684"
         y="-1806.3401"
         rx="34.421211"
         ry="34.421211"
         transform="matrix(0.90167268,0.43241921,-0.90167268,0.43241921,0,0)" /></clipPath></defs><g
     inkscape:label="图层 1"
     inkscape:groupmode="layer"
     id="layer1"
     transform="translate(-3642.6888,6999.675)"><g
       id="毛玻璃立体logo-横版白字"
       transform="translate(6697.7154,-12930.279)"><path
         d="m -2365.0572,6049.4447 74.5451,204.7591 v 2.5595 h -48.3104 l -16.6366,-49.5901 h -76.7847 l -16.3167,49.5901 h -47.6705 v -2.5595 l 74.5451,-204.7591 z m -55.029,121.2558 h 52.4695 l -26.5547,-79.0242 z m 340.4117,-121.2558 v 207.3186 h -49.2702 l -64.947,-96.6207 q -8.3183,-12.7975 -14.0772,-22.0756 -5.7588,-9.5981 -11.1977,-21.4357 v 140.132 h -44.4711 v -207.3186 h 48.9502 l 70.7058,106.2188 q 1.2798,1.9196 5.7589,8.9582 4.4791,6.7186 7.9984,12.7974 3.8392,6.0788 6.3987,11.8377 v -139.8121 z m 114.5374,0 q 53.7492,0 83.5033,23.6753 29.754,23.3553 29.754,79.984 0,34.5531 -15.6768,57.9084 -15.6769,23.3553 -41.9117,34.5531 -25.9148,11.1978 -57.2685,11.1978 h -67.5065 v -207.3186 z m -9.5981,168.2864 q 26.2347,0 41.9116,-5.119 15.6769,-5.4389 23.6753,-19.5161 7.9984,-14.0772 7.9984,-39.992 0,-23.9952 -7.3586,-38.0724 -7.0385,-14.0772 -21.1157,-20.156 -14.0772,-6.3987 -35.5129,-6.3987 h -23.6753 v 129.2542 z m 243.1516,43.5113 q -31.3537,0 -51.5097,-11.5177 -20.1559,-11.8377 -29.4341,-31.6737 -8.9582,-20.156 -8.9582,-45.7508 v -122.8555 h 45.4309 v 117.4165 q 0,26.8747 10.5579,41.9117 10.5579,14.717 36.7927,14.717 24.955,0 35.1929,-14.717 10.238,-15.037 10.238,-38.7123 v -120.6159 h 45.4309 v 121.8956 q 0,31.6737 -12.1576,51.8297 -12.1576,19.836 -33.2733,29.1142 -20.7959,8.9582 -48.3104,8.9582 z m 134.693,-4.4791 v -207.3186 h 45.4309 v 207.3186 z m 275.1449,-207.3186 v 207.3186 h -49.2701 l -64.947,-96.6207 q -8.3184,-12.7975 -14.0772,-22.0756 -5.7589,-9.5981 -11.1978,-21.4357 v 140.132 h -44.4711 v -207.3186 h 48.9502 l 70.7059,106.2188 q 1.2797,1.9196 5.7588,8.9582 4.4791,6.7186 7.9984,12.7974 3.8393,6.0788 6.3988,11.8377 v -139.8121 z m 137.8927,211.7977 q -33.2733,0 -56.6286,-13.7573 -23.0354,-13.7572 -34.8731,-38.0724 -11.8376,-24.635 -11.8376,-56.9486 0,-35.8328 14.3971,-59.828 14.3971,-24.3151 38.0724,-35.8328 23.9952,-11.8377 53.1094,-11.8377 33.2733,0 56.3087,13.7573 23.3554,13.7572 34.8731,38.3923 11.8376,24.3151 11.8376,56.6287 0,35.8328 -14.3971,60.1479 -14.0772,23.9952 -38.0724,35.8329 -23.6753,11.5177 -52.7895,11.5177 z m 0,-37.1126 q 18.8763,0 31.9936,-8.3184 13.4374,-8.6382 19.8361,-24.3151 6.7186,-15.9968 6.7186,-37.4325 0,-33.9132 -14.3971,-52.7894 -14.3971,-19.1962 -41.9116,-19.1962 -28.7943,0 -43.8312,18.8762 -15.037,18.5563 -15.037,51.1898 0,33.9132 14.3971,53.1094 14.3971,18.8762 42.2315,18.8762 z m 204.759,37.1126 q -47.9904,0 -81.5837,-24.955 l 20.4759,-31.6737 q 29.7541,18.8762 58.2284,18.8762 18.2363,0 28.4743,-5.7588 10.5578,-5.7589 10.5578,-17.2766 0,-7.0386 -3.5192,-11.5177 -3.1994,-4.799 -11.8377,-8.9582 -8.3183,-4.4791 -25.2749,-11.1977 l -7.3586,-2.8795 q -20.4759,-7.9984 -32.9534,-15.3569 -12.4775,-7.3585 -19.836,-18.8762 -7.3585,-11.5177 -7.3585,-29.1142 0,-19.5161 11.1977,-32.3135 11.1978,-13.1174 28.7943,-19.1962 17.5965,-6.0788 37.4325,-6.0788 17.9164,0 36.7926,6.0788 19.1962,5.7589 36.4727,17.2766 l -20.7958,31.3537 q -15.3569,-9.2782 -27.1946,-13.4373 -11.8376,-4.1592 -25.5948,-4.1592 -15.357,0 -23.3554,5.119 -7.6784,5.119 -7.6784,13.7572 0,5.4389 3.1993,9.918 3.1994,4.1592 11.5177,8.6383 8.3184,4.1592 23.9952,9.918 l 7.0386,2.5595 q 20.4759,7.6785 32.9534,14.3971 12.7975,6.7187 21.4357,19.1962 8.6383,12.4775 8.6383,32.3135 0,20.7959 -10.8778,35.193 -10.8778,14.0772 -29.7541,21.1158 -18.5563,7.0386 -42.2315,7.0386 z"
         id="path803"
         style="font-weight:bold;font-size:319.936px;font-family:Dubai;-inkscape-font-specification:'Dubai Bold';fill:#ffffff;stroke-width:4.99899"
         aria-label="ANDUINOS" /><g
         id="g813"
         transform="matrix(0.50009004,0,0,0.50009004,1648.5232,4272.7378)"><path
           id="path804"
           style="fill:#3e8df5;fill-opacity:1;stroke-width:0.562304"
           d="m -9000.6667,3738.1401 c -22.4395,0 -44.8794,4.1222 -62.0737,12.3682 l -316.8737,151.9648 c -17.1943,8.246 -25.7917,19.0074 -25.7917,29.7688 v 78.6308 c 0,10.7614 8.5974,21.524 25.7917,29.7698 l 316.8737,151.9638 c 34.3886,16.4918 89.7578,16.4918 124.1464,0 l 316.8747,-151.9638 c 17.1944,-8.2458 25.7918,-19.0084 25.7918,-29.7698 v -78.6308 0 c 0,-10.7614 -8.5964,-21.5228 -25.7907,-29.7688 l -316.8747,-151.9648 c -17.1943,-8.246 -39.6332,-12.3682 -62.0727,-12.3682 z" /><rect
           style="mix-blend-mode:normal;fill:#357cf4;fill-opacity:1;stroke-width:0.636766"
           id="rect804"
           width="489.11389"
           height="489.11389"
           x="-688.85687"
           y="9293.3311"
           rx="68.842422"
           ry="68.842422"
           transform="matrix(0.90167269,0.4324192,-0.90167269,0.4324192,0,0)" /><path
           id="path805"
           style="opacity:0.15;fill:#000000;fill-opacity:1;stroke-width:0.281152;filter:url(#filter15)"
           d="m 81.034847,-1620.3812 c -11.219755,0 -22.439709,2.0617 -31.036865,6.1846 l -158.436842,75.982 c -8.59715,4.1229 -12.89584,9.5036 -12.89585,14.8843 v 39.3155 c -1e-5,5.3808 4.29868,10.7618 12.89585,14.8848 l 158.436842,75.982 c 17.194311,8.246 44.878898,8.246 62.073218,0 l 158.43735,-75.982 c 8.59717,-4.123 12.89587,-9.504 12.89586,-14.8848 v -39.3155 h -5.2e-4 c -10e-6,-5.3807 -4.29819,-10.7614 -12.89534,-14.8843 l -158.43735,-75.982 c -8.59716,-4.1229 -19.816598,-6.1846 -31.036353,-6.1846 z"
           clip-path="url(#clipPath15)"
           transform="matrix(2,0,0,2,-9162.7364,6767.4001)" /><g
           id="g808"
           transform="matrix(7.4111404,0,0,7.4111404,57704.565,-26179.747)"
           style="opacity:0.5"><path
             id="path806"
             style="opacity:0.05;mix-blend-mode:overlay;fill:#ffffff;stroke-width:4.4802"
             d="m -8990.2612,4051.8873 a 4.1144576,1.9733122 0 0 0 -3.9051,2.4836 4.1144576,1.9733122 0 0 1 4.4784,-1.4479 4.1015191,1.9671069 0 0 1 3.4721,1.4429 4.1015191,1.9671069 0 0 0 -3.4721,-2.4639 4.1144576,1.9733122 0 0 0 -0.5733,-0.015 z m -10.4098,2.1025 a 17.790501,8.5324037 0 0 0 -7.9201,0.8873 l 0.9447,0.813 a 17.790501,8.5324037 0 0 1 6.9734,-0.679 c 1.6604,0 3.2542,0.1034 4.781,0.3103 a 5.7705914,2.7676015 0 0 0 7.7372,2.1502 c 2.557,1.2081 4.3638,2.7782 5.0431,4.5406 h 0.2618 c -0.2787,-2.1296 -2.1825,-4.0423 -5.116,-5.4696 a 4.1144576,1.9733122 0 0 1 -5.25,-0.328 5.7705914,2.7676015 0 0 1 -2.6761,-1.9126 c -1.5262,-0.2067 -3.1193,-0.3105 -4.779,-0.3105 z m -9.9129,1.4399 h -0.01 a 17.919886,8.5944573 0 0 0 -7.3748,4.9829 5.757653,2.761396 0 0 1 0.5322,0.2364 17.919886,8.5944573 0 0 1 6.8426,-4.1979 h 0.01 l 2.1389,1.7207 a 12.000501,5.7554939 0 0 1 0.8695,-0.3216 z m -11.0366,5.1567 v 0 a 4.1144576,1.9733122 0 0 0 -3.9529,2.4839 4.1144576,1.9733122 0 0 1 3.9529,-1.4626 v 0 a 4.1176921,1.9748635 0 0 1 3.9963,1.4643 4.1176921,1.9748635 0 0 0 -3.9963,-2.4853 z m 33.1411,2.4836 h -0.2253 a 12.006971,5.7585966 0 0 1 -17.0271,4.7161 l -2.8593,2.4575 a 17.855194,8.5634304 0 0 0 0.9461,0.2079 l 1.9132,-1.6441 a 12.006971,5.7585966 0 0 0 17.0271,-4.7161 v 0 l 5.5964,0.045 a 17.790501,8.5324037 0 0 0 0.2647,-1.0193 z m -42.9865,0 a 30.80999,14.776609 0 0 0 30.7996,15.2873 30.80999,14.776609 0 0 0 30.7836,-15.2873 30.80999,14.776609 0 0 1 -30.7836,14.266 30.80999,14.776609 0 0 1 -30.7996,-14.266 z m 18.8253,0 a 12.000501,5.7554939 0 0 0 4.1939,4.9013 l 0.8709,-0.699 a 12.000501,5.7554939 0 0 1 -5.0651,-4.2023 z m -3.2829,0 a 5.757653,2.761396 0 0 1 -2.0417,1.6381 17.919886,8.5944573 0 0 0 0.5339,0.7843 5.757653,2.761396 0 0 0 1.5078,-2.4224 z m 25.452,6.4375 a 5.757653,2.761396 0 0 0 -2.74,0.4102 4.122417,1.9771296 0 0 0 -0.9655,1.8521 4.122417,1.9771296 0 0 1 3.4735,-1.4516 h -0.01 a 4.1209269,1.976415 0 0 1 4.5894,1.4442 4.1209269,1.976415 0 0 0 -1.8253,-2.1908 17.790501,8.5324037 0 0 1 -0.2086,0.1107 5.757653,2.761396 0 0 0 -2.3168,-0.1778 z" /><path
             fill="#ffffff"
             d="m -9000.6663,4047.7845 a 30.810075,14.77665 0 1 0 0,29.5533 30.810075,14.77665 0 0 0 0,-29.5533 m 10.9784,4.1174 a 4.1015191,1.9671069 0 0 1 3.0598,2.9444 4.1144576,1.9733122 0 1 1 -3.0598,-2.9444 m -10.9849,2.088 q 2.4906,0 4.7807,0.3103 a 5.7705914,2.7676015 0 0 0 7.7373,2.1502 c 3.0405,1.4365 5.0202,3.385 5.3048,5.56 l -5.8546,0.04 a 12.01344,5.7616992 0 0 0 -17.0273,-4.713 l -2.8593,-2.4604 a 17.790501,8.5324037 0 0 1 7.9249,-0.8874 z m -9.911,1.4397 3.0083,2.4201 a 12.000501,5.7554939 0 0 0 0,9.426 l -3.0083,2.4139 a 17.919886,8.5944573 0 0 1 -7.3814,-4.9767 5.757653,2.761396 0 0 0 0,-4.2973 17.919886,8.5944573 0 0 1 7.375,-4.9829 z m -11.0366,5.1567 a 4.1176921,1.9748635 0 1 1 0,3.9497 4.1144576,1.9733122 0 0 1 0,-3.9466 z m 32.9158,2.4822 5.8611,0.047 a 17.790501,8.5324037 0 0 1 -5.3113,5.5537 5.757653,2.761396 0 0 0 -7.7373,2.1502 17.855194,8.5634304 0 0 1 -12.6991,-0.574 l 2.8593,-2.4573 a 12.006971,5.7585966 0 0 0 17.0273,-4.7161 z m -2.0055,6.2364 a 4.1209269,1.976415 0 1 1 1.0092,3.9218 4.122417,1.9771296 0 0 1 -1.0027,-3.9249 z"
             id="path807"
             style="opacity:0.025;mix-blend-mode:overlay;fill:#000000;stroke-width:4.4802" /><path
             id="path808"
             style="opacity:0.05;mix-blend-mode:overlay;fill:#000000;stroke-width:4.4802"
             d="m -9000.6663,4047.7847 a 30.80999,14.776609 0 0 0 -30.7996,15.287 30.80999,14.776609 0 0 1 30.7996,-14.266 30.80999,14.776609 0 0 1 30.7836,14.266 30.80999,14.776609 0 0 0 -30.7836,-15.287 z m 14.4485,6.5845 a 4.1015191,1.9671069 0 0 1 -0.4102,0.4771 4.1144576,1.9733122 0 0 1 -7.5383,-0.4754 4.1144576,1.9733122 0 0 0 0.9504,1.8421 5.7705914,2.7676015 0 0 0 5.0611,0.2373 c 0.064,0.03 0.1264,0.06 0.1889,0.091 a 4.1144576,1.9733122 0 0 0 1.3379,-0.6736 4.1015191,1.9671069 0 0 0 0.4102,-1.4981 z m -21.4289,1.3209 a 17.790501,8.5324037 0 0 0 -0.9444,0.2083 l 2.8593,2.4602 a 12.01344,5.7616992 0 0 1 17.0271,4.7131 v 0 h 0.2253 l 5.6295,-0.038 c -0.045,-0.3459 -0.1333,-0.686 -0.2618,-1.0193 l -5.593,0.038 a 12.01344,5.7616992 0 0 0 -17.0271,-4.7131 l -1.9146,-1.6475 z m -0.7983,2.4812 a 12.000501,5.7554939 0 0 0 -4.1956,4.902 12.000501,5.7554939 0 0 1 5.0651,-4.2026 z m -8.9879,2.4806 a 17.919886,8.5944573 0 0 0 -0.5323,0.785 5.757653,2.761396 0 0 1 2.0417,1.6378 5.757653,2.761396 0 0 0 -1.5094,-2.4228 z m -0.1913,2.4198 a 4.1176921,1.9748635 0 0 1 -3.9963,1.4642 4.1144576,1.9733122 0 0 1 -3.9529,-1.4626 4.1144576,1.9733122 0 0 0 3.9529,2.484 4.1176921,1.9748635 0 0 0 3.9963,-2.4856 z m 34.5159,1.0627 a 17.790501,8.5324037 0 0 1 -5.0465,4.5346 5.757653,2.761396 0 0 0 -7.7372,2.1503 17.855194,8.5634304 0 0 1 -11.753,-0.3661 l -0.9461,0.8131 a 17.855194,8.5634304 0 0 0 12.6991,0.574 5.757653,2.761396 0 0 1 2.6805,-1.918 4.122417,1.9771296 0 0 1 2.508,-0.6205 h -0.01 a 4.1209269,1.976415 0 0 1 2.7641,0.2745 17.790501,8.5324037 0 0 0 5.1025,-5.4429 z m -34.323,1.3627 a 5.757653,2.761396 0 0 1 -0.5339,0.237 17.919886,8.5944573 0 0 0 7.3813,4.9765 l 3.0084,-2.4137 a 12.000501,5.7554939 0 0 1 -0.8709,-0.3223 l -2.1372,1.7151 a 17.919886,8.5944573 0 0 1 -6.8473,-4.1926 z m 31.3105,6.273 a 4.1209269,1.976415 0 0 1 -3.5801,1.4565 4.122417,1.9771296 0 0 1 -4.4761,-1.4522 4.122417,1.9771296 0 0 0 4.4761,2.4736 4.1209269,1.976415 0 0 0 3.5801,-2.4779 z" /></g><path
           id="path809"
           style="fill:#5baefd;fill-opacity:1;stroke-width:0.562304"
           d="m -9000.6667,3526.6377 c -22.4395,0 -44.8794,4.1234 -62.0737,12.3692 l -316.8737,151.964 c -17.1943,8.2458 -25.7917,19.0072 -25.7917,29.7686 v 78.631 c 0,10.7616 8.5974,21.5236 25.7917,29.7696 l 316.8737,151.964 c 34.3886,16.492 89.7578,16.492 124.1464,0 l 316.8747,-151.964 c 17.1944,-8.246 25.7918,-19.008 25.7918,-29.7696 v -78.631 0 c 0,-10.7614 -8.5964,-21.5228 -25.7907,-29.7686 l -316.8747,-151.964 c -17.1943,-8.2458 -39.6332,-12.3692 -62.0727,-12.3692 z" /><rect
           style="mix-blend-mode:normal;fill:#4da2fd;fill-opacity:1;stroke-width:0.636766"
           id="rect809"
           width="489.11389"
           height="489.11389"
           x="-933.414"
           y="9048.7744"
           rx="68.842422"
           ry="68.842422"
           transform="matrix(0.90167269,0.4324192,-0.90167269,0.4324192,0,0)" /><path
           id="path810"
           style="opacity:0.15;fill:#000000;fill-opacity:1;stroke-width:0.281152;filter:url(#filter15)"
           d="m 81.034847,-1620.3812 c -11.219755,0 -22.439709,2.0617 -31.036865,6.1846 l -158.436842,75.982 c -8.59715,4.1229 -12.89584,9.5036 -12.89585,14.8843 v 39.3155 c -1e-5,5.3808 4.29868,10.7618 12.89585,14.8848 l 158.436842,75.982 c 17.194311,8.246 44.878898,8.246 62.073218,0 l 158.43735,-75.982 c 8.59717,-4.123 12.89587,-9.504 12.89586,-14.8848 v -39.3155 h -5.2e-4 c -10e-6,-5.3807 -4.29819,-10.7614 -12.89534,-14.8843 l -158.43735,-75.982 c -8.59716,-4.1229 -19.816598,-6.1846 -31.036353,-6.1846 z"
           clip-path="url(#clipPath15)"
           transform="matrix(2,0,0,2,-9162.7364,6558.0292)" /><path
           id="path811"
           style="fill:#a1c8f6;fill-opacity:1;stroke-width:0.562304"
           d="m -9000.6667,3315.1354 c -22.4395,0 -44.8794,4.1234 -62.0737,12.3694 l -316.8737,151.9637 c -17.1943,8.246 -25.7917,19.0074 -25.7917,29.7688 v 78.6308 c 0,10.7614 8.5974,21.5238 25.7917,29.7698 l 316.8737,151.9638 c 34.3886,16.492 89.7578,16.492 124.1464,0 l 316.8747,-151.9638 c 17.1944,-8.246 25.7918,-19.0084 25.7918,-29.7698 v -78.6308 0 c 0,-10.7614 -8.5964,-21.5228 -25.7907,-29.7688 l -316.8747,-151.9637 c -17.1943,-8.246 -39.6332,-12.3694 -62.0727,-12.3694 z" /><rect
           style="opacity:0.45;fill:#ffffff;fill-opacity:1;stroke-width:0.636766"
           id="rect811"
           width="489.11389"
           height="489.11389"
           x="-1177.9708"
           y="8804.2178"
           rx="68.842422"
           ry="68.842422"
           transform="matrix(0.90167269,0.4324192,-0.90167269,0.4324192,0,0)" /><rect
           style="opacity:0.35;mix-blend-mode:normal;fill:#4da2fd;fill-opacity:1;stroke-width:0.318383;filter:url(#filter10)"
           id="rect812"
           width="244.55695"
           height="244.55695"
           x="-1838.7469"
           y="-1928.6185"
           rx="34.421211"
           ry="34.421211"
           transform="matrix(1.8033454,0.86483842,-1.8033454,0.86483842,-9162.7364,6767.4001)"
           clip-path="url(#clipPath11)" /><rect
           style="opacity:0.5;mix-blend-mode:normal;fill:#357cf4;fill-opacity:1;stroke-width:0.318383;filter:url(#filter12)"
           id="rect813"
           width="244.55695"
           height="244.55695"
           x="-1716.4684"
           y="-1806.3401"
           rx="34.421211"
           ry="34.421211"
           transform="matrix(1.8033454,0.86483842,-1.8033454,0.86483842,-9162.7364,6767.4001)"
           clip-path="url(#clipPath13)" /></g></g></g></svg>
